<svg xmlns="http://www.w3.org/2000/svg" viewBox="0 0 226 226"><defs><style>.cls-1{fill:#bdc5d1;}.cls-2{fill:#f6f6f6;}.cls-3{fill:#fefefe;}</style></defs><g id="Layer_2" data-name="Layer 2"><g id="Bucketly"><circle class="cls-1" cx="113" cy="113" r="113"/><g id="er7bzx.tif"><path class="cls-2" d="M113.31,155.07c-1.7-.45-3.59-.56-5-1.41-17-9.82-33.87-19.85-50.92-29.55-4.15-2.37-4.76-4.41-2.26-8.57C72.8,86,90.29,56.38,108,26.83c1-1.58,2.91-2.54,4.4-3.8a59.72,59.72,0,0,0-.88,7.37q.29,58.67.75,117.34A51.21,51.21,0,0,0,113.31,155.07Z"/><path class="cls-3" d="M168.29,122.4c-18.36,10.84-36.66,21.78-55,32.67a51.21,51.21,0,0,1-1.07-7.33q-.48-58.68-.75-117.34a59.72,59.72,0,0,1,.88-7.37q20.28,33,40.55,66c5.49,9,10.93,17.92,16.49,26.82C171.07,118.5,171.52,120.5,168.29,122.4Z"/><path class="cls-3" d="M169.37,131.22l-56.81,81L54.8,131.9l1.1-1.18c1.69.87,3.4,1.66,5,2.61,15.4,8.95,30.83,17.82,46.11,27,3.81,2.29,6.78,2.19,10.52-.11,15-9.26,30.2-18.23,45.34-27.3,1.68-1,3.42-1.91,5.12-2.87C168.48,130.41,168.92,130.81,169.37,131.22Z"/></g></g></g></svg>