<svg xmlns="http://www.w3.org/2000/svg" width="210.528" height="210.001" viewBox="0 0 210.528 210.001">
  <g id="Group_100" data-name="Group 100" transform="translate(-1397.472 -339)">
    <text id="_75_" data-name="75%" transform="translate(1457 428)" fill="#fff" font-size="30" font-family="Manrope" font-weight="700"><tspan x="-30.3" y="32">75%</tspan></text>
    <path id="Subtraction_1" data-name="Subtraction 1" d="M580-2704a105.774,105.774,0,0,1-21.161-2.133,104.458,104.458,0,0,1-19.709-6.118,105.005,105.005,0,0,1-17.836-9.681,105.749,105.749,0,0,1-15.54-12.821,105.755,105.755,0,0,1-12.821-15.54,105.01,105.01,0,0,1-9.681-17.836,104.484,104.484,0,0,1-6.118-19.71A105.775,105.775,0,0,1,475-2809a105.775,105.775,0,0,1,2.133-21.161,104.484,104.484,0,0,1,6.118-19.71,105.014,105.014,0,0,1,9.681-17.836,105.755,105.755,0,0,1,12.821-15.54,105.749,105.749,0,0,1,15.54-12.821,105.008,105.008,0,0,1,17.836-9.681,104.457,104.457,0,0,1,19.709-6.118A105.774,105.774,0,0,1,580-2914a105.778,105.778,0,0,1,21.161,2.133,104.456,104.456,0,0,1,19.71,6.118,105.017,105.017,0,0,1,17.836,9.681,105.743,105.743,0,0,1,15.54,12.821,105.754,105.754,0,0,1,12.821,15.54,105.012,105.012,0,0,1,9.681,17.836,104.473,104.473,0,0,1,6.118,19.71A105.778,105.778,0,0,1,685-2809a105.778,105.778,0,0,1-2.133,21.161,104.473,104.473,0,0,1-6.118,19.71,105.008,105.008,0,0,1-9.681,17.836,105.754,105.754,0,0,1-12.821,15.54,105.743,105.743,0,0,1-15.54,12.821,105.015,105.015,0,0,1-17.836,9.681,104.459,104.459,0,0,1-19.71,6.118A105.778,105.778,0,0,1,580-2704Zm-1-197a92.682,92.682,0,0,0-18.541,1.869,91.533,91.533,0,0,0-17.269,5.361,92.022,92.022,0,0,0-15.628,8.482,92.663,92.663,0,0,0-13.616,11.234,92.657,92.657,0,0,0-11.234,13.615,92.014,92.014,0,0,0-8.482,15.628,91.534,91.534,0,0,0-5.361,17.269A92.677,92.677,0,0,0,487-2809a92.677,92.677,0,0,0,1.869,18.541,91.534,91.534,0,0,0,5.361,17.269,92,92,0,0,0,8.482,15.628,92.657,92.657,0,0,0,11.234,13.615,92.672,92.672,0,0,0,13.616,11.234,92.009,92.009,0,0,0,15.628,8.482,91.544,91.544,0,0,0,17.269,5.361A92.681,92.681,0,0,0,579-2717a92.683,92.683,0,0,0,18.541-1.869,91.528,91.528,0,0,0,17.27-5.361,92,92,0,0,0,15.628-8.482,92.667,92.667,0,0,0,13.616-11.234,92.661,92.661,0,0,0,11.234-13.615,92.015,92.015,0,0,0,8.482-15.628,91.537,91.537,0,0,0,5.361-17.269A92.679,92.679,0,0,0,671-2809a92.679,92.679,0,0,0-1.869-18.541,91.537,91.537,0,0,0-5.361-17.269,92.023,92.023,0,0,0-8.482-15.628,92.661,92.661,0,0,0-11.234-13.615,92.664,92.664,0,0,0-13.616-11.234,92.031,92.031,0,0,0-15.628-8.482,91.535,91.535,0,0,0-17.27-5.361A92.684,92.684,0,0,0,579-2901Z" transform="translate(923 3253)" fill="#650965"/>
    <path id="Subtraction_3" data-name="Subtraction 3" d="M660-2634a105.771,105.771,0,0,1-21.161-2.134,104.421,104.421,0,0,1-19.71-6.118,105.078,105.078,0,0,1-17.835-9.68,105.765,105.765,0,0,1-15.539-12.822,105.718,105.718,0,0,1-12.821-15.54,104.989,104.989,0,0,1-9.681-17.835,104.485,104.485,0,0,1-6.118-19.71A105.3,105.3,0,0,1,555.472-2729h12.067c.31,2.864.757,5.737,1.331,8.541a91.535,91.535,0,0,0,5.36,17.269,91.965,91.965,0,0,0,8.482,15.628,92.709,92.709,0,0,0,11.234,13.616,92.608,92.608,0,0,0,13.616,11.234,92.012,92.012,0,0,0,15.628,8.482,91.487,91.487,0,0,0,17.269,5.36A92.67,92.67,0,0,0,659-2647a92.668,92.668,0,0,0,18.541-1.869,91.517,91.517,0,0,0,17.27-5.36,92.079,92.079,0,0,0,15.628-8.482,92.655,92.655,0,0,0,13.615-11.234,92.666,92.666,0,0,0,11.235-13.616,91.963,91.963,0,0,0,8.482-15.628,91.545,91.545,0,0,0,5.36-17.269A92.678,92.678,0,0,0,751-2739a92.7,92.7,0,0,0-1.869-18.542,91.545,91.545,0,0,0-5.36-17.269,92.037,92.037,0,0,0-8.482-15.628,92.614,92.614,0,0,0-11.235-13.615,92.673,92.673,0,0,0-13.615-11.235,92.092,92.092,0,0,0-15.628-8.481,91.537,91.537,0,0,0-17.27-5.361A92.683,92.683,0,0,0,660-2830.994V-2844a105.794,105.794,0,0,1,21.162,2.133,104.526,104.526,0,0,1,19.709,6.118,105.009,105.009,0,0,1,17.836,9.681,105.682,105.682,0,0,1,15.539,12.822,105.681,105.681,0,0,1,12.821,15.539,105.039,105.039,0,0,1,9.681,17.836,104.494,104.494,0,0,1,6.118,19.709A105.826,105.826,0,0,1,765-2739a105.826,105.826,0,0,1-2.133,21.161,104.479,104.479,0,0,1-6.118,19.71,105.021,105.021,0,0,1-9.681,17.835,105.7,105.7,0,0,1-12.821,15.54,105.772,105.772,0,0,1-15.539,12.822,105.059,105.059,0,0,1-17.836,9.68,104.4,104.4,0,0,1-19.709,6.118A105.791,105.791,0,0,1,660-2634Z" transform="translate(842 3183)" fill="#a88ae9"/>
  </g>
</svg>
