<svg xmlns="http://www.w3.org/2000/svg" width="25.529" height="24.94" viewBox="0 0 25.529 24.94">
  <g id="Group_1295" data-name="Group 1295" transform="translate(-72 -27.437)">
    <g id="Group_5" data-name="Group 5" transform="translate(71.766 27.279)">
      <path id="Path_165" data-name="Path 165" d="M16.764,1.157H9.235a8,8,0,0,0-8,8V16.1a8,8,0,0,0,8,8h7.529a8,8,0,0,0,8-8V9.157A8,8,0,0,0,16.764,1.157Z" fill="#d7306c" stroke="#ff639b" stroke-width="2"/>
      <path id="Path_166" data-name="Path 166" d="M9.941,12.141H8.529a1.387,1.387,0,0,0-1,.429A1.493,1.493,0,0,0,7.118,13.6V18a1.492,1.492,0,0,0,.414,1.035,1.387,1.387,0,0,0,1,.429H17a1.387,1.387,0,0,0,1-.429A1.493,1.493,0,0,0,18.412,18V13.6A1.493,1.493,0,0,0,18,12.569a1.387,1.387,0,0,0-1-.429Zm0,0V9.212a2.825,2.825,0,1,1,5.647,0m-2.824,5.857v1.464" fill="none" stroke="#ded5e8" stroke-linecap="round" stroke-linejoin="round" stroke-width="2"/>
    </g>
  </g>
</svg>
