<svg xmlns="http://www.w3.org/2000/svg" width="25.53" height="25.5" viewBox="0 0 25.53 25.5">
  <g id="Group_1294" data-name="Group 1294" transform="translate(-159.235 -27.437)">
    <path id="Path_234" data-name="Path 234" d="M299.765,142.553h-7.53a8,8,0,0,0-8,8v7.5a8,8,0,0,0,8,8h7.53a8,8,0,0,0,8-8v-7.5A8,8,0,0,0,299.765,142.553Z" transform="translate(-124 -114.116)" fill="#1a634d" stroke="#169c74" stroke-width="2"/>
    <path id="Path_233" data-name="Path 233" d="M292.941,153.8h-1.412a1.372,1.372,0,0,0-1,.439,1.547,1.547,0,0,0-.413,1.061v4.5a1.547,1.547,0,0,0,.413,1.06,1.369,1.369,0,0,0,1,.44H300a1.369,1.369,0,0,0,1-.44,1.548,1.548,0,0,0,.414-1.06v-4.5a1.548,1.548,0,0,0-.414-1.061,1.372,1.372,0,0,0-1-.439Zm0,0v-3a2.829,2.829,0,1,1,5.647,0m-2.823,6v1.5" transform="translate(-124 -114.116)" fill="none" stroke="#ded5e8" stroke-linecap="round" stroke-linejoin="round" stroke-width="2"/>
  </g>
</svg>
