<svg xmlns="http://www.w3.org/2000/svg" width="18.556" height="19.238" viewBox="0 0 18.556 19.238">
  <path id="Path_160" data-name="Path 160" d="M17.688,5.444h1a1,1,0,0,0-.527-.881ZM9.41,18.778l-.473.881a1,1,0,0,0,.946,0ZM1.132,5.444.659,4.563a1,1,0,0,0-.527.881Zm9.7-2.547,6.386,3.429.946-1.762L11.775,1.135Zm5.859,2.547v6.5h2v-6.5Zm-1.581,9.14L8.937,17.9l.946,1.762,6.17-3.313ZM9.883,17.9l-6.17-3.313-.946,1.762,6.17,3.313ZM2.132,11.941v-6.5h-2v6.5ZM1.605,6.325,7.991,2.9,7.045,1.135.659,4.563Zm-.946,0L8.937,10.77l.946-1.762L1.605,4.563ZM9.883,10.77l8.278-4.445-.946-1.762L8.937,9.008ZM8.41,9.889v8.889h2V9.889Zm-4.7,4.7a3,3,0,0,1-1.581-2.643h-2a5,5,0,0,0,2.635,4.405Zm12.975-2.643a3,3,0,0,1-1.581,2.643l.946,1.762a5,5,0,0,0,2.635-4.405ZM11.775,1.135a5,5,0,0,0-4.73,0L7.991,2.9a3,3,0,0,1,2.838,0Z" transform="translate(-0.132 -0.54)" fill="#ded5e8"/>
</svg>
